<svg xmlns="http://www.w3.org/2000/svg" width="1040" height="560" viewBox="0 0 1040 560" role="img" aria-label="DPAgent main UI layout">
  <rect width="1040" height="560" fill="#fff7f4"/>
  <rect x="24" y="24" width="230" height="512" rx="18" fill="#ffffff" stroke="#ffd0c7" stroke-width="2"/>
  <rect x="278" y="24" width="738" height="512" rx="18" fill="#ffffff" stroke="#ffd0c7" stroke-width="2"/>
  <text x="48" y="62" font-family="Arial, sans-serif" font-size="24" font-weight="700" fill="#43231d">会话栏</text>
  <rect x="48" y="88" width="170" height="34" rx="10" fill="#ffe9e4" stroke="#ff6f61"/>
  <text x="66" y="111" font-family="Arial, sans-serif" font-size="14" fill="#43231d">新建会话</text>
  <rect x="48" y="146" width="180" height="44" rx="10" fill="#fff5f2" stroke="#ffd0c7"/>
  <rect x="48" y="204" width="180" height="44" rx="10" fill="#fff5f2" stroke="#ffd0c7"/>
  <rect x="48" y="262" width="180" height="44" rx="10" fill="#fff5f2" stroke="#ffd0c7"/>
  <text x="64" y="174" font-family="Arial, sans-serif" font-size="14" fill="#6a3b32">项目 A 会话</text>
  <text x="64" y="232" font-family="Arial, sans-serif" font-size="14" fill="#6a3b32">代码审查</text>
  <text x="64" y="290" font-family="Arial, sans-serif" font-size="14" fill="#6a3b32">手机分享测试</text>
  <text x="310" y="62" font-family="Arial, sans-serif" font-size="24" font-weight="700" fill="#43231d">对话区</text>
  <rect x="310" y="86" width="664" height="78" rx="14" fill="#fff5f2" stroke="#ffd0c7"/>
  <text x="334" y="118" font-family="Arial, sans-serif" font-size="15" fill="#43231d">用户消息：帮我检查这个项目怎么启动</text>
  <rect x="310" y="184" width="664" height="110" rx="14" fill="#ffffff" stroke="#ffd0c7"/>
  <text x="334" y="218" font-family="Arial, sans-serif" font-size="15" fill="#43231d">助手回复：我会先读取 package.json 和 README...</text>
  <rect x="334" y="242" width="160" height="28" rx="8" fill="#ffe9e4" stroke="#ff6f61"/>
  <text x="352" y="262" font-family="Arial, sans-serif" font-size="13" fill="#43231d">Tool Call</text>
  <rect x="506" y="242" width="160" height="28" rx="8" fill="#f1f7ff" stroke="#9fc4ff"/>
  <text x="524" y="262" font-family="Arial, sans-serif" font-size="13" fill="#24405f">Tool Result</text>
  <rect x="310" y="382" width="664" height="118" rx="18" fill="#fff1ed" stroke="#ff6f61" stroke-width="2"/>
  <text x="334" y="416" font-family="Arial, sans-serif" font-size="18" font-weight="700" fill="#43231d">输入区</text>
  <rect x="334" y="438" width="120" height="32" rx="16" fill="#ffffff" stroke="#ff6f61"/>
  <text x="352" y="459" font-family="Arial, sans-serif" font-size="13" fill="#d33c32">@agent</text>
  <rect x="466" y="438" width="84" height="32" rx="16" fill="#ffffff" stroke="#ffd0c7"/>
  <text x="488" y="459" font-family="Arial, sans-serif" font-size="13" fill="#43231d">计划</text>
  <rect x="562" y="438" width="92" height="32" rx="16" fill="#ffffff" stroke="#ffd0c7"/>
  <text x="584" y="459" font-family="Arial, sans-serif" font-size="13" fill="#43231d">LLM</text>
  <rect x="666" y="438" width="110" height="32" rx="16" fill="#ffffff" stroke="#ffd0c7"/>
  <text x="692" y="459" font-family="Arial, sans-serif" font-size="13" fill="#43231d">分享</text>
  <circle cx="900" cy="454" r="18" fill="#ffdad2"/>
  <text x="895" y="460" font-family="Arial, sans-serif" font-size="18" fill="#b43a2f">→</text>
</svg>
